<svg xmlns="http://www.w3.org/2000/svg" width="217.204" height="243.015"
    viewBox="81.898 61.45 217.204 243.015">
    <g>
        <path
            d="M194.703 213.353c1.356 2.983 2.712 6.237 3.796 9.22 1.356 3.254 2.44 3.796 5.966 2.711 19.795-5.965 39.32-11.66 59.114-17.625.543-.271 1.356-.271 1.898-.543v68.063c-23.591 7.05-47.182 14.1-71.045 21.151v-82.977c0 .271 0 .271.271 0Z"
            fill="#fff" fill-rule="evenodd" />
        <path
            d="M115.794 275.721V207.66c4.88 1.356 9.49 2.711 14.1 4.067 15.728 4.61 31.456 9.22 47.183 14.1 3.254 1.085 4.339.272 5.695-2.71 1.356-3.255 2.711-6.238 4.338-9.22v83.248c-23.862-7.593-47.454-14.643-71.316-21.423Z"
            fill="#fff" fill-rule="evenodd" />
        <path
            d="m256.258 172.407-26.846 8.135c-12.202 3.525-24.405 7.322-36.607 10.847-1.085.27-2.712.542-3.796 0-20.609-5.966-41.218-12.203-61.826-18.168-.814-.272-1.356-.543-2.712-1.085a953.925 953.925 0 0 0 24.676-7.322c13.016-3.796 26.032-7.863 39.32-11.66 1.355-.27 2.982-.542 4.067 0 20.608 5.966 41.217 12.203 61.826 18.168.542.272 1.084.272 1.627.543.27 0 .27.27.27.542Z"
            fill="#fff" fill-rule="evenodd" />
        <path
            d="M91.931 150.714c6.237-1.898 11.66-3.525 17.355-5.152 17.083-5.153 34.167-10.034 51.25-15.186 1.627-.542 2.712-.27 3.796.814 6.237 5.423 12.745 10.846 19.253 16.27-4.61 1.356-8.948 2.711-13.016 3.796-18.439 5.423-37.15 10.847-55.589 16.541-1.356.271-2.17.271-3.254-.542-5.965-5.152-11.931-10.033-17.897-15.185-.542-.543-.813-.814-1.898-1.356Z"
            fill="#fff" fill-rule="evenodd" />
        <path
            d="M197.686 147.189c4.067-3.526 7.864-6.78 11.66-10.034 2.712-2.169 5.423-4.61 8.135-6.779.542-.542 1.627-.813 2.17-.542 22.777 6.78 45.555 13.558 68.604 20.337l.814.814c-.542.271-1.085.542-1.627 1.085-5.966 4.88-11.931 10.033-17.626 14.914-1.085 1.084-2.17 1.084-3.796.813-22.236-6.508-44.471-13.287-66.707-19.795l-1.627-.813Z"
            fill="#fff" fill-rule="evenodd" />
        <path
            d="M203.923 218.776c-2.983-7.321-5.966-14.1-8.949-21.422l71.588-21.15c2.983 7.05 5.695 14.1 8.949 21.422-23.592 7.05-47.454 14.1-71.588 21.15Z"
            fill="#fff" fill-rule="evenodd" />
        <path
            d="M105.49 197.354c2.982-7.321 5.965-14.1 8.948-21.422l71.588 21.151c-2.983 7.322-5.966 14.1-8.949 21.422a5068.76 5068.76 0 0 1-71.588-21.15Z"
            fill="#fff" fill-rule="evenodd" />
        <path
            d="M272.799 172.95c1.085 8.134 16.812 26.031 6.78 30.37-2.17 1.356-7.865.542-7.594 4.339-2.44 13.287 5.424 71.588-4.067 74.3-26.303 6.778-52.606 17.354-79.18 22.506-18.982-8.948-70.504-13.83-79.723-28.201-3.526-15.728 8.948-72.402-8.407-72.944-9.762-5.966 10.305-23.32 6.237-31.184-7.592-7.864-20.337-13.558-24.947-23.32 24.947-10.305 58.03-21.965 84.604-24.134 27.388 24.134 20.88 23.591 47.996 0 26.575 2.711 59.928 13.83 84.604 24.405-5.152 9.49-18.168 15.456-26.303 23.862Zm-78.367 40.674v82.977c74.842-22.507 77.825-7.864 68.876-88.4-19.524 5.695-39.319 11.66-58.843 17.355-7.321 2.982-6.78-8.678-10.033-11.932Zm-78.367 61.826c90.027 31.727 69.147 21.151 70.774-61.826-3.254 3.797-2.983 14.372-10.033 12.203-15.728-4.61-31.455-9.22-47.183-14.1-26.845-14.915-8.677 46.097-13.558 63.723Zm140.193-103.043c-62.64-23.32-68.605-21.422-131.516-.271 64.809 21.964 66.436 21.964 131.516.271Zm-150.769 24.947c24.134 7.05 47.726 14.101 71.86 21.151 2.982-7.05 5.965-14.1 8.948-21.422-24.405-6.779-47.997-13.83-71.86-20.88l-8.948 21.151Zm98.434 21.422c23.862-7.05 47.725-14.1 71.859-21.422-2.983-7.321-5.966-14.371-8.949-21.422-23.862 7.322-47.725 14.372-71.588 21.422 2.983 7.322 5.695 14.101 8.678 21.422ZM91.93 150.714c8.135 4.61 14.372 15.185 23.05 17.083 23.048-6.779 45.555-13.558 68.604-20.337-8.135-5.152-14.372-15.728-23.049-17.084-23.049 6.78-45.285 13.287-68.605 20.338Zm105.755-3.525c23.863 5.694 48.539 17.625 72.13 19.795 5.152-5.424 16.27-11.66 18.44-16.813-22.779-6.779-45.556-13.558-68.606-20.337-8.135 3.525-14.371 12.202-21.964 17.355Z"
            fill="#ec6508" fill-rule="evenodd" />
        <path d="M0 24.847a24.947 24.947 0 1 1 0 .1z" fill-rule="evenodd" fill="url(&quot;#a&quot;)"
            transform="translate(102.507 115.191)" />
        <path
            d="M138.03 131.461c-1.356-2.983-4.882-4.339-7.864-2.983l-13.83 5.966c-2.983 1.356-4.339 4.88-2.983 7.864l2.983 6.508c1.356 2.982 4.881 4.338 7.864 2.982l13.83-6.236c2.982-1.356 4.338-4.881 2.982-7.864l-2.983-6.237Zm-6.509 7.321-4.88 5.966c-.272.271-1.085.542-1.356.271l-2.712-6.237c0-.27.542-.813.813-.813l7.322.542c.542-.27 1.085 0 .813.271Z"
            fill="#fff" fill-rule="evenodd" />
        <g>
            <g>
                <path
                    d="M120.734 52.84c3.254-15.456-6.779-30.37-22.235-33.353-15.457-3.254-30.371 6.78-33.354 22.236-2.711 13.829 4.881 27.387 17.897 32.268l4.068-19.524-7.05-1.355 1.626-8.135 7.05 1.355 1.356-6.236c1.356-7.05 6.237-10.034 12.745-8.678 2.983.543 6.237 1.898 6.237 1.898l-1.356 6.78-4.067-.543c-3.525-.813-4.881 1.356-5.424 3.525l-1.084 5.153 7.592 1.627-2.982 7.863-6.237-1.627-4.068 19.524c13.83.543 26.303-8.948 29.286-22.778Z"
                    fill-rule="evenodd" fill="url(&quot;#b&quot;)"
                    transform="translate(164.81 79.976)" />
                <path
                    d="m92.436 49.733 2.982-7.864-7.592-1.627 1.084-5.152c.543-2.17 1.899-4.067 5.424-3.525l3.525.814 1.356-6.78s-2.983-1.084-6.237-1.898c-6.237-1.356-11.389 1.627-12.745 8.678l-1.356 6.236-7.05-1.355-1.627 8.135 7.05 1.355-4.067 19.524c1.356.543 2.711.814 4.338 1.356 1.356.271 2.983.543 4.34.543l4.067-19.524 6.508 1.084Z"
                    fill-rule="evenodd" fill="url(&quot;#c&quot;)"
                    transform="translate(174.398 87.693)" />
            </g>
            <g>
                <path
                    d="M120.734 52.84c3.254-15.456-6.779-30.37-22.235-33.353-15.457-3.254-30.371 6.78-33.354 22.236-2.711 13.829 4.881 27.387 17.897 32.268l4.068-19.524-7.05-1.355 1.626-8.135 7.05 1.355 1.356-6.236c1.356-7.05 6.237-10.034 12.745-8.678 2.983.543 6.237 1.898 6.237 1.898l-1.356 6.78-4.067-.543c-3.525-.813-4.881 1.356-5.424 3.525l-1.084 5.153 7.592 1.627-2.982 7.863-6.237-1.627-4.068 19.524c13.83.543 26.303-8.948 29.286-22.778Z"
                    fill-rule="evenodd" fill="url(&quot;#d&quot;)"
                    transform="translate(164.81 79.976)" />
                <path
                    d="m266.833 137.427 2.983-7.864-7.593-1.627 1.085-5.152c.542-2.17 1.898-4.068 5.423-3.526l3.526.814 1.355-6.78s-2.982-1.084-6.236-1.897c-6.237-1.356-11.39 1.627-12.745 8.677l-1.356 6.237-7.05-1.356-1.627 8.135 7.05 1.356-4.067 19.524c1.355.542 2.711.813 4.338 1.356 1.356.27 2.983.542 4.339.542l4.067-19.524 6.508 1.085Z"
                    fill="#fff" fill-rule="evenodd" />
            </g>
        </g>
        <g>
            <path d="M0 24.034a24.134 24.134 0 1 1 0 .1z" fill-rule="evenodd"
                fill="url(&quot;#e&quot;)" transform="translate(158.367 61.5)" />
            <g>
                <g>
                    <path
                        d="M189.009 81.024c1.898 1.356 4.338 2.17 7.05 2.17V78.04c-.542 0-1.085 0-1.356-.27v4.067c-2.711 0-5.152-.814-7.05-2.17v10.305c0 5.152-4.067 9.22-9.22 9.22-1.898 0-3.796-.543-5.152-1.628 1.627 1.627 4.068 2.712 6.78 2.712 5.152 0 9.219-4.068 9.219-9.22l-.271-10.033Zm1.627-4.88c-.814-1.086-1.627-2.713-1.627-4.068v-.814h-1.356c.271 2.17 1.356 3.796 2.983 4.881ZM176.264 94.04c-.542-.813-.813-1.627-.813-2.44 0-2.441 1.898-4.34 4.338-4.34.543 0 .814 0 1.356.272V82.38h-1.356v4.067c-.542 0-.813-.27-1.356-.27-2.44 0-4.338 1.897-4.338 4.338-.271 1.356.813 2.712 2.169 3.525Z"
                        fill="#fff" fill-rule="evenodd" />
                    <path
                        d="M187.382 79.94c1.898 1.355 4.338 2.169 7.05 2.169V78.04c-1.356-.27-2.712-1.084-3.796-2.17-1.627-1.084-2.983-2.71-3.254-4.88h-3.797v20.066c0 2.44-1.898 4.339-4.338 4.339-1.356 0-2.712-.542-3.254-1.627-1.356-.814-2.44-2.17-2.44-3.796 0-2.441 1.898-4.34 4.338-4.34.542 0 .813 0 1.356.272v-4.067c-5.152 0-9.22 4.338-9.22 9.22 0 2.44 1.085 4.88 2.712 6.507 1.356 1.085 3.254 1.627 5.152 1.627 5.152 0 9.22-4.067 9.22-9.22V79.94h.27Z"
                        fill="#fff" fill-rule="evenodd" />
                    <path
                        d="M194.432 78.312v-1.084c-1.356 0-2.712-.271-3.796-1.085 1.084 1.085 2.44 1.627 3.796 2.17Zm-7.05-7.05v-1.085h-5.152v20.067c0 2.44-1.898 4.338-4.339 4.338-.813 0-1.356-.27-1.898-.542.813 1.085 1.898 1.627 3.254 1.627 2.44 0 4.339-1.898 4.339-4.339V71.262h3.796Zm-7.864 10.847v-1.085h-1.356c-5.152 0-9.22 4.068-9.22 9.22 0 3.254 1.628 5.965 4.068 7.592-1.627-1.627-2.712-4.067-2.712-6.508 0-4.88 4.068-9.22 9.22-9.22Z"
                        fill="#fff" fill-rule="evenodd" />
                </g>
                <g>
                    <path
                        d="M189.009 81.024c1.898 1.356 4.338 2.17 7.05 2.17V78.04c-.542 0-1.085 0-1.356-.27v4.067c-2.711 0-5.152-.814-7.05-2.17v10.305c0 5.152-4.067 9.22-9.22 9.22-1.898 0-3.796-.543-5.152-1.628 1.627 1.627 4.068 2.712 6.78 2.712 5.152 0 9.219-4.068 9.219-9.22l-.271-10.033Zm1.627-4.88c-.814-1.086-1.627-2.713-1.627-4.068v-.814h-1.356c.271 2.17 1.356 3.796 2.983 4.881ZM176.264 94.04c-.542-.813-.813-1.627-.813-2.44 0-2.441 1.898-4.34 4.338-4.34.543 0 .814 0 1.356.272V82.38h-1.356v4.067c-.542 0-.813-.27-1.356-.27-2.44 0-4.338 1.897-4.338 4.338-.271 1.356.813 2.712 2.169 3.525Z"
                        fill="#e72f59" fill-rule="evenodd" />
                    <path
                        d="M187.382 79.94c1.898 1.355 4.338 2.169 7.05 2.169V78.04c-1.356-.27-2.712-1.084-3.796-2.17-1.627-1.084-2.983-2.71-3.254-4.88h-3.797v20.066c0 2.44-1.898 4.339-4.338 4.339-1.356 0-2.712-.542-3.254-1.627-1.356-.814-2.44-2.17-2.44-3.796 0-2.441 1.898-4.34 4.338-4.34.542 0 .813 0 1.356.272v-4.067c-5.152 0-9.22 4.338-9.22 9.22 0 2.44 1.085 4.88 2.712 6.507 1.356 1.085 3.254 1.627 5.152 1.627 5.152 0 9.22-4.067 9.22-9.22V79.94h.27Z"
                        fill="#fff" fill-rule="evenodd" />
                    <path
                        d="M194.432 78.312v-1.084c-1.356 0-2.712-.271-3.796-1.085 1.084 1.085 2.44 1.627 3.796 2.17Zm-7.05-7.05v-1.085h-5.152v20.067c0 2.44-1.898 4.338-4.339 4.338-.813 0-1.356-.27-1.898-.542.813 1.085 1.898 1.627 3.254 1.627 2.44 0 4.339-1.898 4.339-4.339V71.262h3.796Zm-7.864 10.847v-1.085h-1.356c-5.152 0-9.22 4.068-9.22 9.22 0 3.254 1.628 5.965 4.068 7.592-1.627-1.627-2.712-4.067-2.712-6.508 0-4.88 4.068-9.22 9.22-9.22Z"
                        fill="#2ab7c5" fill-rule="evenodd" />
                </g>
            </g>
        </g>
        <path d="M0 30a30.1 30.1 0 1 1 0 .1z" fill-rule="evenodd" fill="url(&quot;#f&quot;)"
            transform="translate(160.807 127.393)" />
        <g>
            <g>
                <path
                    d="M200.126 146.104c-1.084 0-2.169.813-2.169 2.17 0 1.084.814 2.169 2.17 2.169 1.084 0 2.169-.814 2.169-2.17 0-1.356-1.085-2.17-2.17-2.17Z"
                    fill="#fff" fill-rule="evenodd" />
                <path
                    d="M190.907 148.816c-4.881 0-8.678 3.796-8.678 8.677 0 4.88 3.797 8.677 8.678 8.677 4.88 0 8.677-3.796 8.677-8.677s-3.796-8.677-8.677-8.677Zm0 14.1c-2.983 0-5.424-2.44-5.424-5.423s2.44-5.423 5.424-5.423c2.983 0 5.423 2.44 5.423 5.423.271 2.983-2.17 5.423-5.423 5.423Z"
                    fill="#fff" fill-rule="evenodd" />
                <path
                    d="M197.957 175.119h-14.1c-5.966 0-10.576-4.61-10.576-10.576v-14.1c0-5.966 4.61-10.576 10.575-10.576h14.101c5.966 0 10.576 4.61 10.576 10.576v14.1c0 5.695-4.881 10.576-10.576 10.576Zm-14.1-31.998a7.291 7.291 0 0 0-7.322 7.322v14.1a7.291 7.291 0 0 0 7.321 7.322h14.101a7.291 7.291 0 0 0 7.322-7.322v-14.1a7.291 7.291 0 0 0-7.322-7.322h-14.1Z"
                    fill="#fff" fill-rule="evenodd" />
            </g>
        </g>
    </g>
    <defs>
        <linearGradient x1="-1.465" y1="1.45" x2="-2.168" y2="2.153" id="a">
            <stop stop-color="#e63033" offset="0" />
            <stop stop-color="#9d1915" offset="1" />
        </linearGradient>
        <linearGradient x1="-10.012" y1="11.262" x2="-9.304" y2="11.969" id="b">
            <stop stop-color="#241c47" offset="0" />
            <stop stop-color="#171527" offset=".537" />
            <stop stop-color="#020203" offset="1" />
        </linearGradient>
        <linearGradient x1="-20.106" y1="14" x2="-18.722" y2="14.897" id="c">
            <stop stop-color="#241c47" offset="0" />
            <stop stop-color="#171527" offset=".537" />
            <stop stop-color="#020203" offset="1" />
        </linearGradient>
        <linearGradient x1=".937" y1=".516" x2="1.644" y2="1.223" id="d">
            <stop stop-color="#386db4" offset="0" />
            <stop stop-color="#3767b0" offset=".17" />
            <stop stop-color="#3458a4" offset=".448" />
            <stop stop-color="#313f92" offset=".795" />
            <stop stop-color="#2d3189" offset="1" />
        </linearGradient>
        <linearGradient x1=".143" y1=".144" x2=".851" y2=".852" id="e">
            <stop stop-color="#241c47" offset="0" />
            <stop stop-color="#171527" offset=".537" />
            <stop stop-color="#020203" offset="1" />
        </linearGradient>
        <linearGradient x1=".851" y1=".146" x2=".146" y2=".852" id="f">
            <stop stop-color="#ffe088" offset=".001" />
            <stop stop-color="#fab744" offset=".209" />
            <stop stop-color="#ea5578" offset=".377" />
            <stop stop-color="#e93e8f" offset=".524" />
            <stop stop-color="#7c4997" offset=".739" />
            <stop stop-color="#4f53a0" offset="1" />
        </linearGradient>
    </defs>
</svg>